<?xml version="1.0" encoding="utf-8"?>
<!-- Generator: Adobe Illustrator 27.0.0, SVG Export Plug-In . SVG Version: 6.00 Build 0)  -->
<svg version="1.1" id="图层_1" xmlns:vectornator="http://vectornator.io"
	 xmlns="http://www.w3.org/2000/svg" xmlns:xlink="http://www.w3.org/1999/xlink" x="0px" y="0px" viewBox="0 0 1920 665.5"
	 style="enable-background:new 0 0 1920 665.5;" xml:space="preserve">
<style type="text/css">
	.st0{opacity:0.966;}
	.st1{fill:#2E5686;}
</style>
<g id="图层-1" vectornator:layerName="鍥惧眰 1">
	<g class="st0">
		<path class="st1" d="M234.1,204.9H233l-21.3,122h-54.1l-45.8-188.5h46.3l26.9,142.2h1.1l26.9-142.2h40.7l26.9,142.2h1.1
			l26.9-142.2H355l-45.8,188.5h-54.1L234.1,204.9z"/>
		<path class="st1" d="M435.5,330.4c-15.3,0-28.7-3.1-40.3-9.4c-11.6-6.3-20.5-15.2-26.8-26.8c-6.3-11.6-9.4-25.3-9.4-41.1
			c0-24.2,6.8-42.8,20.5-55.7c13.6-12.9,32.3-19.4,56-19.4c23.5,0,42.1,6.5,55.7,19.4c13.6,12.9,20.5,31.5,20.5,55.7
			c0,15.8-3.1,29.5-9.4,41.1c-6.3,11.6-15.2,20.5-26.7,26.8C464.1,327.2,450.8,330.4,435.5,330.4z M401.6,253.1
			c0,13.8,3.1,25,9.4,33.4c6.3,8.4,14.5,12.7,24.5,12.7c10.1,0,18.2-4.2,24.4-12.7c6.2-8.4,9.3-19.6,9.3-33.4c0-14.4-3-25.3-9-32.7
			c-6-7.4-14.2-11.2-24.6-11.2c-10.4,0-18.7,3.7-24.8,11.2C404.6,227.8,401.6,238.7,401.6,253.1z"/>
		<path class="st1" d="M576.3,181.5v15.6c4.7-5,10.3-8.9,16.8-11.7c6.6-2.8,13.1-4.2,19.5-4.2c4.5,0,8.7,0.6,12.7,1.9v33.1
			c-5-1.3-9.8-1.9-14.3-1.9c-6.8,0-13.3,1.1-19.4,3.4c-6.1,2.2-11.2,5.8-15.3,10.6v98.5h-43.1V181.5H576.3z"/>
		<path class="st1" d="M643.1,326.9v-207h43.1v109h6.5l33.4-47.4h45L724.4,245c9.9,9.3,18.8,20.6,26.7,33.9
			c7.9,13.3,15.8,29.3,23.7,47.9h-40.7c-7.9-17.2-14.5-30.4-19.8-39.4c-5.3-9.1-12.2-17.4-20.6-24.9h-7.5v64.3H643.1z"/>
		<path class="st1" d="M917.7,319.1c-6.8,4.1-14.8,7.2-23.8,9.2c-9.1,2-17.8,3-26.3,3c-28.7,0-50.5-6.8-65.3-20.5
			c-14.8-13.6-22.2-32.8-22.2-57.3c0-24.4,6.6-43.1,19.8-56.1c13.2-13,31.2-19.5,54-19.5c22.6,0,40.5,6.5,53.7,19.5
			c13.2,13,19.8,31.7,19.8,56.1c0,2.7-0.2,6.6-0.5,11.6H822.1c4,23.2,19.1,34.7,45.5,34.7c18.5,0,35.2-5.5,50.1-16.4V319.1z
			 M886.8,234.8c-2.3-9-6.4-15.6-12.1-19.9c-5.7-4.3-12.7-6.5-20.7-6.5c-7.5,0-14,2.2-19.2,6.7c-5.3,4.5-9,11-11.2,19.7H886.8z"/>
		<path class="st1" d="M992,181.5v15.6c4.7-5,10.3-8.9,16.8-11.7c6.6-2.8,13.1-4.2,19.5-4.2c4.5,0,8.7,0.6,12.7,1.9v33.1
			c-5-1.3-9.8-1.9-14.3-1.9c-6.8,0-13.3,1.1-19.4,3.4c-6.1,2.2-11.2,5.8-15.3,10.6v98.5H949V181.5H992z"/>
		<path class="st1" d="M1117.2,330.1c-10.9,0.5-22-0.3-33.3-2.6c-11.2-2.2-21-5.7-29.2-10.4v-38.8c7.4,5.4,16.2,9.8,26.5,13.3
			c10.3,3.5,19.4,5,27.3,4.4c5.6-0.4,9.6-1.6,12.1-3.6c2.5-2.1,4-4.2,4.3-6.3c0.9-5.6-0.4-9.8-4-12.7c-3.6-2.9-10.3-5.7-20.2-8.3
			c-10.9-3.1-19.7-6.6-26.1-10.6c-6.5-4-11.4-8.6-14.7-13.7c-3.3-5.1-5-11.6-5-19.5c0-8.3,2.2-15.7,6.5-22.2
			c4.3-6.6,11.1-11.7,20.5-15.5c9.3-3.8,19.4-5.7,30.2-5.7c8.1,0,16.2,0.8,24.5,2.3c8.3,1.5,15.2,3.5,20.7,6.1v34.7
			c-5.7-2.9-12.5-5.4-20.3-7.7c-7.8-2.2-14.6-3.4-20.3-3.4c-12.2,0-18.8,3.2-19.9,9.7c-0.5,3.8,1.2,7.1,5.3,10
			c4,2.9,9.8,5.5,17.4,7.8c10.8,3.4,19.6,6.9,26.5,10.5c6.9,3.6,12.3,8.3,16.3,14c4,5.7,5.9,13.1,5.9,22.1
			c0,13.3-4.8,24.1-14.3,32.4C1144.3,324.8,1132.1,329.4,1117.2,330.1z"/>
		<path class="st1" d="M1371.9,273.6h-60.3l-14.3,53.3h-47.1l54.7-188.5h74l54.7,188.5h-47.4L1371.9,273.6z M1363.3,241.2
			l-21.3-78.9h-0.5l-21.3,78.9H1363.3z"/>
		<path class="st1" d="M1511.4,330.1c-10.9,0.5-22-0.3-33.3-2.6c-11.2-2.2-21-5.7-29.2-10.4v-38.8c7.4,5.4,16.2,9.8,26.5,13.3
			c10.3,3.5,19.4,5,27.3,4.4c5.6-0.4,9.6-1.6,12.1-3.6c2.5-2.1,4-4.2,4.3-6.3c0.9-5.6-0.4-9.8-4-12.7c-3.6-2.9-10.3-5.7-20.2-8.3
			c-10.9-3.1-19.7-6.6-26.1-10.6c-6.5-4-11.4-8.6-14.7-13.7c-3.3-5.1-5-11.6-5-19.5c0-8.3,2.2-15.7,6.5-22.2
			c4.3-6.6,11.1-11.7,20.5-15.5c9.3-3.8,19.4-5.7,30.2-5.7c8.1,0,16.2,0.8,24.5,2.3c8.3,1.5,15.2,3.5,20.7,6.1v34.7
			c-5.7-2.9-12.5-5.4-20.3-7.7c-7.8-2.2-14.6-3.4-20.3-3.4c-12.2,0-18.8,3.2-19.9,9.7c-0.5,3.8,1.2,7.1,5.3,10
			c4,2.9,9.8,5.5,17.4,7.8c10.8,3.4,19.6,6.9,26.5,10.5c6.9,3.6,12.3,8.3,16.3,14c4,5.7,5.9,13.1,5.9,22.1
			c0,13.3-4.8,24.1-14.3,32.4C1538.5,324.8,1526.3,329.4,1511.4,330.1z"/>
		<path class="st1" d="M1628.5,181.5v145.4h-43.1V181.5H1628.5z M1585.5,119.8h43.1v43.1h-43.1V119.8z"/>
		<path class="st1" d="M1720.9,330.4c-13.6,0-25.5-3.2-35.7-9.7c-10.1-6.5-18-15.3-23.4-26.7c-5.5-11.3-8.2-24.5-8.2-39.6
			c0-14.9,2.7-28.1,8.2-39.7c5.5-11.6,13.2-20.6,23.2-27.1c10-6.5,21.6-9.7,34.9-9.7c6.1,0,12.3,1.1,18.4,3.4
			c6.2,2.2,12,5.3,17.4,9.3v-9.2h43.1v111.5c0,14.5,1.8,25.8,5.4,33.9h-40.4c-1.3-2.5-2.3-5.7-3.2-9.7
			C1749.3,326,1736.1,330.4,1720.9,330.4z M1694.8,254.4c0,8.3,1.7,15.8,5,22.6c3.3,6.8,7.7,12.3,13.2,16.3c5.5,4,11.3,6.1,17.4,6.1
			c4.3,0,9.2-0.9,14.5-2.8c5.4-1.9,10.1-6,14-12.3V224c-3.9-6.3-8.6-10.3-13.9-12.1c-5.3-1.8-10.2-2.7-14.7-2.7
			c-6.1,0-11.9,2-17.4,5.9c-5.5,3.9-9.9,9.4-13.2,16.3C1696.4,238.3,1694.8,246,1694.8,254.4z"/>
	</g>
	<g class="st0">
		<path class="st1" d="M124,408.4l2.2-19h102.2l-2.2,19h-41.5l-13.3,110.5h-20.3l13.3-110.5H124z"/>
		<path class="st1" d="M288.8,441.6c-7.1-0.2-11.7-0.3-13.8-0.3c-7.4,0-12.9,1.8-16.5,5.3c-3.7,3.5-6,9.3-6.9,17.3l-6.9,55h-19.8
			l6.7-54.5c1.7-14.6,6.1-25.2,13.2-31.7c7.1-6.5,17.9-9.8,32.5-9.8c5.7,0,10.6,0.2,14.6,0.5L288.8,441.6z"/>
		<path class="st1" d="M319.1,518.8c-8.6,0-15.5-2.4-20.7-7.3c-5.2-4.9-7.8-11.2-7.8-19c0-1.7,0.1-3,0.2-4c1-7.1,2.9-12.8,5.5-17
			c2.6-4.2,6.5-7.2,11.5-9.1c5-1.9,11.6-2.8,19.7-2.8h28.9l0.2-1.4c0.1-0.6,0.2-1.4,0.2-2.4c0-4.5-1.5-8.1-4.5-10.9
			c-3-2.8-7.6-4.1-14-4.1h-4.5c-10.2,0-19.4,0.3-27.6,0.9l2.6-17.6l5-0.3c1.8-0.1,5.1-0.3,9.7-0.5c4.7-0.2,8.7-0.3,12.1-0.3h4.7
			c11.8,0,20.8,2.8,26.9,8.4c6.1,5.6,9.1,13.2,9.1,22.6c0,1-0.1,2.8-0.3,5.3l-7.1,59.6H319.1z M310.5,490.6c0,3.3,0.9,5.9,2.8,7.7
			c1.9,1.8,4.6,2.7,8.2,2.7h30l2.9-24.1l-28.6-0.2c-4.4-0.1-7.8,0.7-10.4,2.5c-2.6,1.8-4.2,4.9-4.7,9.4L310.5,490.6z"/>
		<path class="st1" d="M419.6,441.3l-9.3,77.5h-19.8l11.7-96h43.3c23.8,0,35.7,10.9,35.7,32.7c0,2.6-0.2,5.5-0.5,8.6l-6.7,54.6H454
			l6.7-55.1c0.2-2.3,0.3-3.9,0.3-4.8c0-11.7-6-17.6-17.9-17.6H419.6z"/>
		<path class="st1" d="M518.3,519.5c-10.6-0.2-19.7-0.7-27.4-1.4l2.6-18.6c11.3,1,20.3,1.7,27.1,1.9h5.9c7.4,0,12.5-0.9,15.4-2.8
			c2.9-1.8,4.7-4.5,5.4-7.9c0.1-0.6,0.2-1.4,0.2-2.4c0-2.9-0.5-4.8-1.4-5.7c-0.8-1.3-2.1-2.1-4-2.6c-1.8-0.5-5.3-1-10.5-1.6l-4-0.5
			c-6-0.5-11.7-1.5-17.1-3.1c-4.2-1.6-7.4-3.9-9.5-7c-2.1-3-3.1-7.1-3.1-12.1c0-1,0.1-2.8,0.3-5.3c0.8-7,2.8-12.5,6-16.5
			c3.2-4,7.7-6.8,13.4-8.5c5.7-1.7,13.2-2.6,22.2-2.6h7.1l24.3,0.2l-2.2,18.3h-31.4c-5.1,0-8.9,0.3-11.5,0.8
			c-2.6,0.5-4.6,1.4-5.8,2.6c-1.2,1.2-2,3-2.3,5.3c-0.1,0.6-0.2,1.3-0.2,2.2c0,1.8,0.5,3.4,1.6,4.7c1.2,1.4,2.8,2.3,5.1,2.8
			c2.2,0.5,6.4,1.1,12.5,1.8c7.2,0.7,13.2,1.8,17.7,3.3c4,1.4,7.1,3.7,9.2,7.1c2.1,3.3,3.2,7.6,3.2,12.9c0,2.5-0.1,4.5-0.3,5.9
			c-1.4,10.7-5.4,18.2-12.1,22.5c-6.7,4.3-16.9,6.5-30.7,6.5H518.3z"/>
		<path class="st1" d="M580.7,518.8L596.9,386h19.8l-16.2,132.9H580.7z"/>
		<path class="st1" d="M649.8,518.8c-8.6,0-15.5-2.4-20.7-7.3c-5.2-4.9-7.8-11.2-7.8-19c0-1.7,0.1-3,0.2-4c1-7.1,2.9-12.8,5.5-17
			c2.6-4.2,6.5-7.2,11.5-9.1c5-1.9,11.6-2.8,19.7-2.8h28.9l0.2-1.4c0.1-0.6,0.2-1.4,0.2-2.4c0-4.5-1.5-8.1-4.5-10.9
			c-3-2.8-7.6-4.1-14-4.1h-4.5c-10.2,0-19.4,0.3-27.6,0.9l2.6-17.6l5-0.3c1.8-0.1,5.1-0.3,9.7-0.5c4.7-0.2,8.7-0.3,12.1-0.3h4.7
			c11.8,0,20.8,2.8,26.9,8.4c6.1,5.6,9.1,13.2,9.1,22.6c0,1-0.1,2.8-0.3,5.3l-7.1,59.6H649.8z M641.1,490.6c0,3.3,0.9,5.9,2.8,7.7
			c1.9,1.8,4.6,2.7,8.2,2.7h30l2.9-24.1l-28.6-0.2c-4.4-0.1-7.8,0.7-10.4,2.5c-2.6,1.8-4.2,4.9-4.7,9.4L641.1,490.6z"/>
		<path class="st1" d="M718.2,441.3l2.2-18.4h21.7l2.9-24.5h19.8l-2.9,24.5h29.3l-2.2,18.4h-29.3l-5.3,43.9
			c-0.1,0.8-0.2,1.9-0.2,3.3c0,7.7,3.8,11.5,11.4,11.5c3.2,0,9-0.1,17.2-0.3l-2.2,18.8c-4.6,0.2-10.3,0.3-17.2,0.3
			c-9.4,0-16.7-2.1-21.9-6.4c-5.2-4.2-7.8-10.6-7.8-19c0-0.9,0.1-2.6,0.3-5.2l5.7-47H718.2z"/>
		<path class="st1" d="M847.9,422.2c11.8,0,20.8,2.8,26.8,8.4c6,5.6,9,13.8,9,24.7c0,2.5-0.2,5.3-0.5,8.3l-1.9,15.5h-64.3v0.2
			c-0.2,2.5-0.3,4.3-0.3,5.2c0,5.9,1.7,10.2,5.1,13c3.4,2.8,9.1,4.2,17.1,4.2h8.4c6,0,15-0.5,27.2-1.6l-1.9,17.9
			c-10.1,1-19.2,1.6-27.2,1.6h-8.4c-13.9,0-24.1-2.8-30.6-8.4c-6.5-5.6-9.7-13.9-9.7-24.8c0-2.6,0.2-5.3,0.5-8.1l1.7-14.5
			c1.6-13.8,6.1-24.2,13.6-31.1c7.5-6.9,18.1-10.4,31.9-10.4H847.9z M863.6,462.3v-0.2c0.2-2.5,0.3-4.4,0.3-5.5
			c0-5.5-1.5-9.7-4.4-12.6c-2.9-2.9-7.6-4.3-13.9-4.3h-3.4c-13.6,0-21.3,7.5-23.1,22.6H863.6z"/>
	</g>
</g>
</svg>
