<?xml version="1.0" encoding="UTF-8" standalone="no"?>
<!DOCTYPE svg PUBLIC "-//W3C//DTD SVG 1.1//EN" "http://www.w3.org/Graphics/SVG/1.1/DTD/svg11.dtd">
<!-- Created with Vectornator (http://vectornator.io/) -->
<svg height="100%" stroke-miterlimit="10" style="fill-rule:nonzero;clip-rule:evenodd;stroke-linecap:round;stroke-linejoin:round;" version="1.1" viewBox="0 0 891.382 288.487" width="100%" xml:space="preserve" xmlns="http://www.w3.org/2000/svg" xmlns:vectornator="http://vectornator.io" xmlns:xlink="http://www.w3.org/1999/xlink">
<defs/>
<g id="图层-1" vectornator:layerName="图层 1">
<g fill="#265082" opacity="0.96601" stroke="none">
<path d="M108.691 92.1984L108.191 92.1984L98.3162 148.823L73.1912 148.823L51.9412 61.3234L73.4412 61.3234L85.9412 127.323L86.4412 127.323L98.9412 61.3234L117.816 61.3234L130.316 127.323L130.816 127.323L143.316 61.3234L164.816 61.3234L143.566 148.823L118.441 148.823L108.691 92.1984Z"/>
<path d="M202.191 150.448C195.108 150.448 188.879 148.99 183.504 146.073C178.129 143.157 173.983 139.011 171.066 133.636C168.15 128.261 166.691 121.907 166.691 114.573C166.691 103.323 169.858 94.6984 176.191 88.6984C182.525 82.6984 191.191 79.6984 202.191 79.6984C213.108 79.6984 221.733 82.6984 228.066 88.6984C234.4 94.6984 237.566 103.323 237.566 114.573C237.566 121.907 236.108 128.261 233.191 133.636C230.275 139.011 226.15 143.157 220.816 146.073C215.483 148.99 209.275 150.448 202.191 150.448ZM186.441 114.573C186.441 120.99 187.9 126.157 190.816 130.073C193.733 133.99 197.525 135.948 202.191 135.948C206.858 135.948 210.629 133.99 213.504 130.073C216.379 126.157 217.816 120.99 217.816 114.573C217.816 107.907 216.42 102.844 213.629 99.3859C210.837 95.9276 207.025 94.1984 202.191 94.1984C197.358 94.1984 193.525 95.9276 190.691 99.3859C187.858 102.844 186.441 107.907 186.441 114.573Z"/>
<path d="M267.566 81.3234L267.566 88.5734C269.733 86.2401 272.337 84.4276 275.379 83.1359C278.42 81.8443 281.441 81.1984 284.441 81.1984C286.525 81.1984 288.483 81.4901 290.316 82.0734L290.316 97.4484C287.983 96.8651 285.775 96.5734 283.691 96.5734C280.525 96.5734 277.525 97.0943 274.691 98.1359C271.858 99.1776 269.483 100.823 267.566 103.073L267.566 148.823L247.566 148.823L247.566 81.3234L267.566 81.3234Z"/>
<path d="M298.566 148.823L298.566 52.6984L318.566 52.6984L318.566 103.323L321.566 103.323L337.066 81.3234L357.941 81.3234L336.316 110.823C340.9 115.157 345.025 120.407 348.691 126.573C352.358 132.74 356.025 140.157 359.691 148.823L340.816 148.823C337.15 140.823 334.087 134.719 331.629 130.511C329.17 126.303 325.983 122.448 322.066 118.948L318.566 118.948L318.566 148.823L298.566 148.823Z"/>
<path d="M426.066 145.198C422.9 147.115 419.212 148.532 415.004 149.448C410.795 150.365 406.733 150.823 402.816 150.823C389.483 150.823 379.379 147.657 372.504 141.323C365.629 134.99 362.191 126.115 362.191 114.698C362.191 103.365 365.254 94.6776 371.379 88.6359C377.504 82.5943 385.858 79.5734 396.441 79.5734C406.941 79.5734 415.254 82.5943 421.379 88.6359C427.504 94.6776 430.566 103.365 430.566 114.698C430.566 115.948 430.483 117.74 430.316 120.073L381.691 120.073C383.525 130.823 390.566 136.198 402.816 136.198C411.4 136.198 419.15 133.657 426.066 128.573L426.066 145.198ZM411.691 106.073C410.608 101.907 408.733 98.8234 406.066 96.8234C403.4 94.8234 400.191 93.8234 396.441 93.8234C392.941 93.8234 389.962 94.8651 387.504 96.9484C385.045 99.0318 383.316 102.073 382.316 106.073L411.691 106.073Z"/>
<path d="M460.566 81.3234L460.566 88.5734C462.733 86.2401 465.337 84.4276 468.379 83.1359C471.42 81.8443 474.441 81.1984 477.441 81.1984C479.525 81.1984 481.483 81.4901 483.316 82.0734L483.316 97.4484C480.983 96.8651 478.775 96.5734 476.691 96.5734C473.525 96.5734 470.525 97.0943 467.691 98.1359C464.858 99.1776 462.483 100.823 460.566 103.073L460.566 148.823L440.566 148.823L440.566 81.3234L460.566 81.3234Z"/>
<path d="M518.691 150.323C513.608 150.573 508.462 150.178 503.254 149.136C498.045 148.094 493.525 146.49 489.691 144.323L489.691 126.323C493.108 128.823 497.212 130.886 502.004 132.511C506.795 134.136 511.025 134.823 514.691 134.573C517.275 134.407 519.15 133.844 520.316 132.886C521.483 131.928 522.15 130.948 522.316 129.948C522.733 127.365 522.108 125.407 520.441 124.073C518.775 122.74 515.65 121.448 511.066 120.198C505.983 118.782 501.941 117.136 498.941 115.261C495.941 113.386 493.67 111.261 492.129 108.886C490.587 106.511 489.816 103.49 489.816 99.8234C489.816 95.9901 490.816 92.5526 492.816 89.5109C494.816 86.4693 497.983 84.0734 502.316 82.3234C506.65 80.5734 511.316 79.6984 516.316 79.6984C520.066 79.6984 523.858 80.0526 527.691 80.7609C531.525 81.4693 534.733 82.4068 537.316 83.5734L537.316 99.6984C534.65 98.3651 531.504 97.1776 527.879 96.1359C524.254 95.0943 521.108 94.5734 518.441 94.5734C512.775 94.5734 509.691 96.0734 509.191 99.0734C508.941 100.823 509.754 102.365 511.629 103.698C513.504 105.032 516.191 106.24 519.691 107.323C524.691 108.907 528.795 110.532 532.004 112.198C535.212 113.865 537.733 116.032 539.566 118.698C541.4 121.365 542.316 124.782 542.316 128.948C542.316 135.115 540.108 140.136 535.691 144.011C531.275 147.886 525.608 149.99 518.691 150.323Z"/>
<path d="M636.941 124.073L608.941 124.073L602.316 148.823L580.441 148.823L605.816 61.3234L640.191 61.3234L665.566 148.823L643.566 148.823L636.941 124.073ZM632.941 109.073L623.066 72.4484L622.816 72.4484L612.941 109.073L632.941 109.073Z"/>
<path d="M701.691 150.323C696.608 150.573 691.462 150.178 686.254 149.136C681.045 148.094 676.525 146.49 672.691 144.323L672.691 126.323C676.108 128.823 680.212 130.886 685.004 132.511C689.795 134.136 694.025 134.823 697.691 134.573C700.275 134.407 702.15 133.844 703.316 132.886C704.483 131.928 705.15 130.948 705.316 129.948C705.733 127.365 705.108 125.407 703.441 124.073C701.775 122.74 698.65 121.448 694.066 120.198C688.983 118.782 684.941 117.136 681.941 115.261C678.941 113.386 676.67 111.261 675.129 108.886C673.587 106.511 672.816 103.49 672.816 99.8234C672.816 95.9901 673.816 92.5526 675.816 89.5109C677.816 86.4693 680.983 84.0734 685.316 82.3234C689.65 80.5734 694.316 79.6984 699.316 79.6984C703.066 79.6984 706.858 80.0526 710.691 80.7609C714.525 81.4693 717.733 82.4068 720.316 83.5734L720.316 99.6984C717.65 98.3651 714.504 97.1776 710.879 96.1359C707.254 95.0943 704.108 94.5734 701.441 94.5734C695.775 94.5734 692.691 96.0734 692.191 99.0734C691.941 100.823 692.754 102.365 694.629 103.698C696.504 105.032 699.191 106.24 702.691 107.323C707.691 108.907 711.795 110.532 715.004 112.198C718.212 113.865 720.733 116.032 722.566 118.698C724.4 121.365 725.316 124.782 725.316 128.948C725.316 135.115 723.108 140.136 718.691 144.011C714.275 147.886 708.608 149.99 701.691 150.323Z"/>
<path d="M756.066 81.3234L756.066 148.823L736.066 148.823L736.066 81.3234L756.066 81.3234ZM736.066 52.6984L756.066 52.6984L756.066 72.6984L736.066 72.6984L736.066 52.6984Z"/>
<path d="M798.941 150.448C792.608 150.448 787.087 148.948 782.379 145.948C777.67 142.948 774.045 138.823 771.504 133.573C768.962 128.323 767.691 122.198 767.691 115.198C767.691 108.282 768.962 102.136 771.504 96.7609C774.045 91.3859 777.629 87.1984 782.254 84.1984C786.879 81.1984 792.275 79.6984 798.441 79.6984C801.275 79.6984 804.129 80.2193 807.004 81.2609C809.879 82.3026 812.566 83.7401 815.066 85.5734L815.066 81.3234L835.066 81.3234L835.066 133.073C835.066 139.823 835.9 145.073 837.566 148.823L818.816 148.823C818.233 147.657 817.733 146.157 817.316 144.323C812.15 148.407 806.025 150.448 798.941 150.448ZM786.816 115.198C786.816 119.032 787.587 122.532 789.129 125.698C790.67 128.865 792.712 131.386 795.254 133.261C797.795 135.136 800.483 136.073 803.316 136.073C805.316 136.073 807.566 135.636 810.066 134.761C812.566 133.886 814.733 131.99 816.566 129.073L816.566 101.073C814.733 98.1568 812.587 96.2818 810.129 95.4484C807.67 94.6151 805.4 94.1984 803.316 94.1984C800.483 94.1984 797.795 95.1151 795.254 96.9484C792.712 98.7818 790.67 101.303 789.129 104.511C787.587 107.719 786.816 111.282 786.816 115.198Z"/>
</g>
<g fill="#265082" opacity="0.96601" stroke="none">
<path d="M57.5814 186.663L58.6214 177.863L106.061 177.863L105.021 186.663L85.7414 186.663L79.5814 237.943L70.1414 237.943L76.3014 186.663L57.5814 186.663Z"/>
<path d="M134.061 202.103C130.755 201.997 128.621 201.943 127.661 201.943C124.248 201.943 121.688 202.757 119.981 204.383C118.275 206.01 117.208 208.69 116.781 212.423L113.581 237.943L104.381 237.943L107.501 212.663C108.301 205.89 110.341 200.983 113.621 197.943C116.901 194.903 121.928 193.383 128.701 193.383C131.368 193.383 133.635 193.463 135.501 193.623L134.061 202.103Z"/>
<path d="M148.141 237.943C144.141 237.943 140.941 236.81 138.541 234.543C136.141 232.277 134.941 229.33 134.941 225.703C134.941 224.903 134.968 224.29 135.021 223.863C135.501 220.557 136.355 217.93 137.581 215.983C138.808 214.037 140.581 212.623 142.901 211.743C145.221 210.863 148.275 210.423 152.061 210.423L165.501 210.423L165.581 209.783C165.635 209.517 165.661 209.143 165.661 208.663C165.661 206.583 164.968 204.903 163.581 203.623C162.195 202.343 160.035 201.703 157.101 201.703L155.021 201.703C150.275 201.703 146.008 201.837 142.221 202.103L143.421 193.943L145.741 193.783C146.595 193.73 148.101 193.65 150.261 193.543C152.421 193.437 154.301 193.383 155.901 193.383L158.061 193.383C163.555 193.383 167.715 194.69 170.541 197.303C173.368 199.917 174.781 203.41 174.781 207.783C174.781 208.263 174.728 209.09 174.621 210.263L171.341 237.943L148.141 237.943ZM144.141 224.823C144.141 226.37 144.581 227.557 145.461 228.383C146.341 229.21 147.608 229.623 149.261 229.623L163.181 229.623L164.541 218.423L151.261 218.343C149.235 218.29 147.621 218.677 146.421 219.503C145.221 220.33 144.488 221.783 144.221 223.863L144.141 224.823Z"/>
<path d="M194.781 201.943L190.461 237.943L181.261 237.943L186.701 193.383L206.781 193.383C217.821 193.383 223.341 198.45 223.341 208.583C223.341 209.81 223.261 211.143 223.101 212.583L219.981 237.943L210.781 237.943L213.901 212.343C214.008 211.277 214.061 210.53 214.061 210.103C214.061 204.663 211.288 201.943 205.741 201.943L194.781 201.943Z"/>
<path d="M240.621 238.263C235.715 238.157 231.475 237.943 227.901 237.623L229.101 228.983C234.328 229.463 238.515 229.757 241.661 229.863L244.381 229.863C247.795 229.863 250.181 229.437 251.541 228.583C252.901 227.73 253.741 226.503 254.061 224.903C254.115 224.637 254.141 224.263 254.141 223.783C254.141 222.45 253.928 221.57 253.501 221.143C253.128 220.557 252.515 220.157 251.661 219.943C250.808 219.73 249.181 219.49 246.781 219.223L244.941 218.983C242.168 218.77 239.528 218.29 237.021 217.543C235.048 216.797 233.581 215.717 232.621 214.303C231.661 212.89 231.181 211.01 231.181 208.663C231.181 208.183 231.235 207.357 231.341 206.183C231.715 202.93 232.648 200.383 234.141 198.543C235.635 196.703 237.715 195.383 240.381 194.583C243.048 193.783 246.488 193.383 250.701 193.383L253.981 193.383L265.261 193.463L264.221 201.943L249.661 201.943C247.315 201.943 245.528 202.063 244.301 202.303C243.075 202.543 242.181 202.943 241.621 203.503C241.061 204.063 240.701 204.877 240.541 205.943C240.488 206.21 240.461 206.557 240.461 206.983C240.461 207.837 240.701 208.557 241.181 209.143C241.715 209.783 242.501 210.223 243.541 210.463C244.581 210.703 246.515 210.983 249.341 211.303C252.701 211.623 255.448 212.13 257.581 212.823C259.448 213.463 260.875 214.557 261.861 216.103C262.848 217.65 263.341 219.65 263.341 222.103C263.341 223.277 263.288 224.183 263.181 224.823C262.541 229.783 260.675 233.263 257.581 235.263C254.488 237.263 249.741 238.263 243.341 238.263L240.621 238.263Z"/>
<path d="M269.581 237.943L277.101 176.263L286.301 176.263L278.781 237.943L269.581 237.943Z"/>
<path d="M301.661 237.943C297.661 237.943 294.461 236.81 292.061 234.543C289.661 232.277 288.461 229.33 288.461 225.703C288.461 224.903 288.488 224.29 288.541 223.863C289.021 220.557 289.875 217.93 291.101 215.983C292.328 214.037 294.101 212.623 296.421 211.743C298.741 210.863 301.795 210.423 305.581 210.423L319.021 210.423L319.101 209.783C319.155 209.517 319.181 209.143 319.181 208.663C319.181 206.583 318.488 204.903 317.101 203.623C315.715 202.343 313.555 201.703 310.621 201.703L308.541 201.703C303.795 201.703 299.528 201.837 295.741 202.103L296.941 193.943L299.261 193.783C300.115 193.73 301.621 193.65 303.781 193.543C305.941 193.437 307.821 193.383 309.421 193.383L311.581 193.383C317.075 193.383 321.235 194.69 324.061 197.303C326.888 199.917 328.301 203.41 328.301 207.783C328.301 208.263 328.248 209.09 328.141 210.263L324.861 237.943L301.661 237.943ZM297.661 224.823C297.661 226.37 298.101 227.557 298.981 228.383C299.861 229.21 301.128 229.623 302.781 229.623L316.701 229.623L318.061 218.423L304.781 218.343C302.755 218.29 301.141 218.677 299.941 219.503C298.741 220.33 298.008 221.783 297.741 223.863L297.661 224.823Z"/>
<path d="M333.421 201.943L334.461 193.383L344.541 193.383L345.901 182.023L355.101 182.023L353.741 193.383L367.341 193.383L366.301 201.943L352.701 201.943L350.221 222.343C350.168 222.717 350.141 223.223 350.141 223.863C350.141 227.437 351.901 229.223 355.421 229.223C356.915 229.223 359.581 229.17 363.421 229.063L362.381 237.783C360.248 237.89 357.581 237.943 354.381 237.943C350.008 237.943 346.621 236.957 344.221 234.983C341.821 233.01 340.621 230.077 340.621 226.183C340.621 225.757 340.675 224.957 340.781 223.783L343.421 201.943L333.421 201.943Z"/>
<path d="M393.661 193.063C399.155 193.063 403.301 194.357 406.101 196.943C408.901 199.53 410.301 203.357 410.301 208.423C410.301 209.597 410.221 210.877 410.061 212.263L409.181 219.463L379.341 219.463L379.341 219.543C379.235 220.717 379.181 221.517 379.181 221.943C379.181 224.663 379.968 226.677 381.541 227.983C383.115 229.29 385.768 229.943 389.501 229.943L393.421 229.943C396.195 229.943 400.408 229.703 406.061 229.223L405.181 237.543C400.488 238.023 396.275 238.263 392.541 238.263L388.621 238.263C382.168 238.263 377.435 236.957 374.421 234.343C371.408 231.73 369.901 227.89 369.901 222.823C369.901 221.597 369.981 220.343 370.141 219.063L370.941 212.343C371.688 205.943 373.795 201.13 377.261 197.903C380.728 194.677 385.661 193.063 392.061 193.063L393.661 193.063ZM400.941 211.703L400.941 211.623C401.048 210.45 401.101 209.597 401.101 209.063C401.101 206.503 400.421 204.557 399.061 203.223C397.701 201.89 395.555 201.223 392.621 201.223L391.021 201.223C384.728 201.223 381.155 204.717 380.301 211.703L400.941 211.703Z"/>
</g>
</g>
</svg>
